<?xml version="1.0" encoding="utf-8"?>
<!-- Generator: Adobe Illustrator 19.0.0, SVG Export Plug-In . SVG Version: 6.00 Build 0)  -->
<svg version="1.1" id="Layer_1" xmlns="http://www.w3.org/2000/svg" xmlns:xlink="http://www.w3.org/1999/xlink" x="0px" y="0px"
	 viewBox="0 0 463 124" enable-background="new 0 0 463 124" xml:space="preserve">
<g>
	<path fill="#EF7215" d="M70.6,93.2c0.1,1.2-0.2,2-0.8,3c-2.8,4.4-6.8,9.7-12.4,10.7c-2.2,0.4-4.2-0.1-6-1.1
		c-0.4-0.3-5.7-4.2-5.7-4.6c0.1,0,0.2,0,0.4,0.1c-0.2-0.2-0.4-0.3-0.5-0.3c0.3,0.3-1-0.5-1.2-0.6c-0.8-0.6-1.4-1.3-1.9-2
		c-1.1-1.3-2.2-2.4-3.4-3.5c-0.5-0.4-5.2-5.9-4.5-6.6c0.1-0.1,0.4,0.5,0.6,0.3L33.9,87v0.2c-0.2,0.3-6.1-9.1-6.7-10
		c-1-1.6-2.4-3.4-2.9-5.3c-0.1-0.3,0-0.6,0.3-0.7c-0.1-0.4-0.4-0.7-0.8-0.9L22,66.8c-0.9,2.9-1,5.8-2,8.7c-1.3,4.3-2.3,8.5-3.3,12.7
		l-1.2,5.2c-0.3,1.3-0.2,3.4-0.9,4.6c-1.4,2.6-4.6-1.2-5.6-2.7c-3-4-1.1-8.7,0-13c0.9-3.8,2-7.5,3.3-11.2c1.1-2.9,1.5-5.8,2.2-8.8
		c2.2-7.6,5-15.1,7.4-22.7c2.3-6.7,4.5-13.5,7.3-20.2c0.4-1.3,1-2.7,1.7-4.1l0.7-1.7c-0.1-0.1-0.2-0.3-0.2-0.4
		c1.3-2.3,5.1-1.2,6.8,0.1c3.5,2.4,0.5,4.6-0.7,7.4c-0.4,1-0.2,1.7-0.5,2.9c-0.6,2.1-1.7,4.2-2.4,6.2c-1.1,2.8-2.1,5.6-3.1,8.5
		l-1.8,4.5c-0.7,1.6-1,3-1.2,4.7c-0.6,3.1-2.4,6-3.2,9.1c4.9-3.8,9.4-7.6,13.7-12c4.3-4.7,9-8.7,13.1-13.7
		c3.8-4.8,8.8-10.4,10.5-16.3c0.3-1,0-2.2,1.5-1.9c2.1,0.5,3.8,4.5,4.2,6.4v0.2c0.7,4.3-1.5,7.5-4.3,10.8c-2,2.3-3.8,4.6-6,6.9
		c-1.1,1.1-1.5,2.2-2.4,3.4c-0.9,1.2-2.3,2.3-3.4,3.3c-2.3,2-4.4,4.3-6.7,6.3c-1.6,1.3-2.7,2.9-4.2,4.3c-4.3,3.9-9.5,7.5-14.8,10.1
		c2.2,3.6,4.4,7.1,7.1,10.4c-0.8-1.2-2.4-3.4-3.4-5.1c3.2,4.2,10.4,12.8,11.2,13.8c2.6,2.4,5.2,4.7,7.7,7.2c1.7,1.7,3.8,4,5.6,5.2
		l-0.5-0.6c0-0.2,3.7,1.5,4.1,1.7c1,0.3,2,0.6,3,0.5c2.6-0.3,5.6-2.5,7.1-4.4C69.3,92,70.2,90.5,70.6,93.2z M18.7,57.9
		c-2.3,8.1-4.9,16.3-6.8,24.4c0.9-3.1,2.2-6.2,3.2-9.4c1.2-4.2,2-8.4,3-12.5c0-0.1,0-0.2,0.1-0.3L18.7,57.9z M28.6,67.5l0.5,0.9
		C28.8,67.9,28.6,67.6,28.6,67.5z M29.2,68.6l0.4,0.5L29.2,68.6z M36.2,78.1c0.7,1,1.6,1.9,2.4,2.8l-1.7-2.1L36.2,78.1z"/>
	<path fill="#EF7215" d="M110.1,72.1c-1.3,3-2.8,5.7-4.4,8.4c-1.9,3-3.8,5.9-6,8.5c-1.8,2.3-4.3,5.2-7.3,5.7
		c-3.4,0.6-6.1-2.2-7.2-5.2c-2.4-5.9-0.7-12.1,1.1-17.8c0,0,0-0.9,0.1-1.6c-1,1.5-2.4,3.3-3.3,4.7c-1.2,1.9-2.1,3.8-3.4,5.6
		c-0.6,0.9-8.8,10.8-9.9,9.1c0,0,1.2-0.5,1.1-0.7c-1.2,0.8-2.8,1-4.2,0.6c0.3,0.2,0.5,0.3,0.4,0.3c-2.3,0.3-4.1-3.3-4.6-4.9
		c-0.8-2.8-0.6-5.9-0.1-8.7c1.1-5.8,3.5-12.1,6.9-17.1c0.9-1.2,1.8-2.6,3.1-3.5c0.8-0.7,1.5-0.8,2.4-1.4c1.5-1.3,2.8-2.4,5-2.4
		c4.9,0,6.9,5.6,7.9,9.4c2.4-3.1,6.7-7.2,10.4-2.7c2,2.4,0.7,4.2-0.4,6.4c-1.9,3.5-3.4,7.8-4.2,11.4c0.1-0.3,0.4-1.8,0.8-1.9
		c0.8-0.2-6.4,22.4,3.9,9.7c3.1-3.9,5.8-8,8.5-12.1c1.2-1.9,2.4-3.9,3.7-5.8c0.6-0.8,2.4-2.7,2.5-0.5
		C113.1,67.9,110.9,70.2,110.1,72.1z M84.7,64.7c0-0.8-2-6.3-1.5-6.7c0.1-0.1,1,2.8,1.1,3c-0.3-1.2-0.7-4.9-2.5-4.9
		c-3.3,0-5.8,6.1-6.9,8.4c-2,4.5-3.8,9.3-4.6,14.2c0.3-1.5,6.1-19.6,7.9-19.5c-1.4,0.3-6.7,15.7-7,17.1c-0.2,0.8-1.8,6-0.3,6.5
		c1,0.3,3.4-2.8,3.9-3.5c1.9-2.3,3.7-4.7,5.4-7.2l2.6-3.7c0.4-0.7,0.9-1.4,1.4-2.1C84.7,65.5,84.7,65.5,84.7,64.7z M85,64v1
		C85.3,64.7,85.3,64.4,85,64z M87.4,68.8l-0.5,0.7c-0.1,0.3-0.4,1.7-0.4,1.7L87.4,68.8z"/>
	<path fill="#EF7215" d="M145.3,69.7c-0.8,1.7-1.8,3.3-2.9,4.9c-2.3,3.4-4.8,6.8-7.2,10.2c-2.4,3.3-5,6.6-8.2,9.3
		c-0.6,0.4-5.2,4.1-5.5,4c0-0.1,0.1-0.2,0.2-0.3l-0.7,0.3c0.5-0.1-1.4,1.2-1.9,1.4c-1.4,0.3-2.9-0.1-4.1-0.9c-1.3-0.8-2-2-2.6-3.4
		c-1-2.2-1.1-4.3-0.7-6.7c0.1-0.5,1.5-6.3,2.2-6.2c0.2,0-0.2,0.8-0.1,0.9l0.7-2.5c-0.3-0.1,5-11.3,5.5-12c-3,0.6-6.8,0.5-8.9-2.1
		c-0.6-0.8-0.4-1.5-0.6-2.1c-0.3-0.8-0.7-1.2-0.9-1.9c-1-4.9,4.7-11.7,9.5-8.4l-0.2-0.3c0.1-0.6,1.3,0.9,1.4,1.4
		c0,0.4-0.8,3.2-1.3,3c-0.1,0,0.6-1.8,0.6-1.9c-0.7,1.9-2.8,4-3,6c-0.2,1.5,0.6,1.5,1.9,1.8c1.9,0.5,4.9,0.2,7.3,0.9
		c-1.6-0.5-3.5-0.6-4.8-0.8c0,0-0.1,0-0.1-0.1c1.5,0.2,3.1,0.2,4.4,0.5c2.9,0.7,4.7,1.8,3.5,4.9c-1.2,2.9-2.7,5.8-4,8.7
		c-1.2,2.8-2.2,5.8-3.3,8.7c-0.3,1-2.5,5.2-1.7,6.2c1,1.2,6.5-3.8,8-5.4c-0.3,0.3-0.6,0.3-0.8,0.5c-0.2,0,2-2.8,2.3-3.2l2.9-3.7
		l5.4-7.1l5.5-7.4c0.5-0.6,2.9-4.1,3.5-1.5C146.9,66.8,145.9,68.5,145.3,69.7z M114.3,96.7c-0.1-0.1-0.2-0.2-0.2-0.3l0.1,0.1
		c-0.5-1.1-1-2.2-1.2-2.8l0.3,1.3l-0.4-2.1v-0.1c-0.1-0.2-0.1-0.3-0.1-0.3s0,0.1,0.1,0.2v-0.5c-0.1-1.4,0-2.7,0.2-4v-0.1
		c-0.2,0.9-0.3,1.7-0.3,2.7c-0.1,1.2,0,2.6,0.3,3.8c0.1,0.3,0.9,2,1.5,2.8c0-0.1,0-0.2-0.1-0.2c0.6,0.6,1.4,1.1,2.3,1.4
		c-1.1-0.4-1.9-1.2-2.5-2V96.7z M113.1,88v0.1c0-0.1,0.1-0.2,0.1-0.3C113.2,87.9,113.1,87.9,113.1,88z M113.4,86.1
		c0,0.2-0.1,0.3-0.1,0.4C113.3,86.4,113.4,86.3,113.4,86.1z M113.6,86.1c0.7-2.6,1.8-5.1,2.8-7.5l1.9-4.4c0.5-0.9,2.6-5.8,3.1-6.1
		c-0.7,0.2-2.1,3.8-2.3,4.1c-0.9,1.7-1.7,3.4-2.4,5.2C115.5,80.2,114.3,83.1,113.6,86.1z M113.8,95.9c0-0.1-0.1-0.2-0.1-0.2
		C113.7,95.8,113.8,95.8,113.8,95.9z M116.7,62.7c0,0,0-0.1,0.1-0.1L116.7,62.7z M116.7,62.8c0.1,0.2,0.7,0.7,0.7,0.7
		c0.5,0.4,1.2,0.6,2,0.7c-0.9-0.1-1.8-0.2-2.3-0.6C116.9,63.5,116.7,63,116.7,62.8z M127.6,71.3l-2.1,4.5l2.1-4.4V71.3z M127.6,71.2
		h0.1v-0.1L127.6,71.2z M127.6,71.2h0.1v-0.1L127.6,71.2z"/>
	<path fill="#EF7215" d="M187.4,72.1c-1.3,3-2.8,5.7-4.4,8.4c-1.9,3-3.8,5.9-6,8.5c-1.8,2.3-4.3,5.2-7.3,5.7
		c-3.4,0.6-6.1-2.2-7.2-5.2c-2.4-5.9-0.7-12.1,1.1-17.8c0,0,0-0.9,0.1-1.6c-1,1.5-2.4,3.3-3.3,4.7c-1.2,1.9-2.1,3.8-3.4,5.6
		c-0.6,0.9-8.8,10.8-9.9,9.1c0,0,1.2-0.5,1.1-0.7c-1.2,0.8-2.8,1-4.2,0.6c0.3,0.2,0.5,0.3,0.4,0.3c-2.3,0.3-4.1-3.3-4.6-4.9
		c-0.8-2.8-0.6-5.9-0.1-8.7c1.1-5.8,3.5-12.1,6.9-17.1c0.9-1.2,1.8-2.6,3.1-3.5c0.8-0.7,1.5-0.8,2.4-1.4c1.5-1.3,2.8-2.4,5-2.4
		c4.9,0,6.9,5.6,7.9,9.4c2.4-3.1,6.7-7.2,10.4-2.7c2,2.4,0.7,4.2-0.4,6.4c-1.9,3.5-3.4,7.8-4.2,11.4c0.1-0.3,0.4-1.8,0.8-1.9
		c0.8-0.2-6.4,22.4,3.9,9.7c3.1-3.9,5.8-8,8.5-12.1c1.2-1.9,2.4-3.9,3.7-5.8c0.6-0.8,2.4-2.7,2.5-0.5
		C190.4,67.9,188.2,70.2,187.4,72.1z M162,64.7c0-0.8-2-6.3-1.5-6.7c0.1-0.1,1,2.8,1.1,3c-0.3-1.2-0.7-4.9-2.5-4.9
		c-3.3,0-5.8,6.1-6.9,8.4c-2,4.5-3.8,9.3-4.6,14.2c0.3-1.5,6.1-19.6,7.9-19.5c-1.4,0.3-6.7,15.7-7,17.1c-0.2,0.8-1.8,6-0.3,6.5
		c1,0.3,3.4-2.8,3.9-3.5c1.9-2.3,3.7-4.7,5.4-7.2l2.6-3.7c0.4-0.7,0.9-1.4,1.4-2.1C162,65.5,162,65.5,162,64.7z M162.3,64v1
		C162.6,64.7,162.6,64.4,162.3,64z M164.7,68.8l-0.5,0.7c-0.1,0.3-0.4,1.7-0.4,1.7L164.7,68.8z"/>
	<path fill="#EF7215" d="M223.5,37.8c0.1,1.4-1.6,2.5-2.8,2.8c-1.3,0.4-2.8-0.4-4-0.2c-0.7,0.2-0.5,0.5-1.1,0.7
		c-0.9,0.3-2,0.2-2.9,0.2c-1.3,0-4.1-0.7-5.2,0c-0.2,0.1-0.4,0.3-0.6,0.6l0.3-0.6c-0.6,0.1-1.6,2.8-2.3,4.6l1.1-2.2l-1.4,3.8
		c-1,2.1-1.9,4.3-2.8,6.4c-1.8,4.2-3.4,8.3-5,12.6c-2.7,7.8-5.4,16-7.2,24.1c-0.3,1.4-2,7.2-0.1,8c0.3,0.2,2.4-1,2.3-0.9
		c0.5-0.5,1.1-1,1.6-1.6c-0.4,0.3-1.5,1.2-1.5,1c-0.1-0.6,2.4-2.6,2.8-3.1c1-1,1.9-2.1,2.8-3.1l5.8-7.1c3.6-4.5,7-9.1,10.6-13.6
		c0.8-1,2.6-4.5,3.9-4.8c1.6-0.3,1.9,1.3,1.4,2.6c-0.9,2.7-3.6,4.9-5,7.3c-2.5,4.2-5.5,8.1-8.4,12.1c-3.2,4.3-6.4,8.6-9.9,12.7
		c-1.6,2-3.7,4.8-6.2,6c-1.9,0.9-4.4-0.2-6-1.4c-1.8-1.2-2.8-3-3.2-5c-0.1-0.6-0.7-3.8-0.1-4.5v1.5l0.2-2c-0.2,0.4-0.2-0.9-0.2-1.1
		c0-0.8,0.2-1.7,0.4-2.5c0.2-1.6,0.6-3.1,1-4.7c0.7-3.1,1.5-6.2,2.1-9.4c0.5-3.2,1.6-6.2,2.6-9.2c0.2-0.5,2.2-6.6,2.7-6.6
		c0.1,0-0.2,1.2-0.2,1.3c0.4-1.5,1-3,1.5-4.5c-0.2,0.5-0.5,1-0.5,0.8c0-1.2,1.3-3.3,1.7-4.4l1.2-3.5c1.1-3.2,2.2-6.4,3.6-9.4
		c-2.8,0.2-5.5,0-8.1,0.5c-3.8,0.7-8.6,0.3-12.4-0.2c-0.5-0.1-2.9-0.2-2.3-1.3c0.2-0.3,2.4-0.8,2.8-0.9c1.9-0.7,3.9-0.7,5.9-0.8
		c3.9-0.4,7.7-0.2,11.6-0.7c1-0.1,2.7,0.2,3.6-0.2c0.9-0.3,0.9-1,1.3-1.9c0.7-1.8,1.5-3.6,2.3-5.3c0.9-1.9,1.7-3.9,2.9-5.6
		c0.8-1.1,1.6-1.4,2.2-2.6c1.2-2.7,2.6-5.4,4.5-7.7c2-2.6,5.5-3,8.6-2.4c1.5,0.3,3.6,1.2,2.9,3.2c-0.3,0.8-1.3,1.3-1.9,1.9
		c0,0.1,0.9-0.9,0.9-0.5c-0.1,0.7-3.8,5.8-4.1,5.7c-0.1,0,1.4-2.5,1.5-2.7c-3.8,5.6-7,11.7-10,17.8c0.3,0,0.6-0.4,1-1.1
		c-0.3,0.6-0.5,1-0.5,1.1c3.9-0.2,7.9-0.2,11.9-0.4C221.9,37.4,223.4,36.3,223.5,37.8L223.5,37.8z M187.7,99.3
		c0.1,0.1,0.2,0.2,0.3,0.2L187.7,99.3z M217.5,18.5c-8,11.3-13,24.7-18.6,37.2c-3.3,7.3-6.1,14.9-8.3,22.6c-1,3.5-1.8,7-2.5,10.6
		l0.5-1.9c1.1-4.7,2.7-9.4,4.4-13.9c3.6-9.9,7-20.1,11.5-29.6C208.5,35,212.1,26.2,217.5,18.5z M200.9,55c-0.9,2-1.6,4-2.4,5.9
		c0.8-1.8,1.6-3.6,2.3-5.5C200.8,55.3,200.8,55.2,200.9,55z M210.8,34.3l-1,2.2C210.1,35.9,210.5,35.1,210.8,34.3z M213.5,29
		l-2.4,4.6C212.1,31.3,213,29.1,213.5,29z"/>
</g>
<g>
	<path fill="#FFFDFD" d="M303.2,21.2c-1.3,0.4-1.1,0.6-2.1,1.4c-1.1,0.9-3.4,1.4-4.7,1.7c-5.3,1.4-10.2,2.8-15.5,3.2
		c-1.2,0.1-2.9,0.2-4.1,0.5c-1.3,0.4-1,0.2-1.5,1.7l-0.8,2.2c-0.9,2.9-1.7,5.9-2.6,8.9c-0.9,2.9-1.9,6-3.3,8.6
		c-0.4,0.6-1.6,4.5-1.8,4.5v-0.3l-0.3,0.8c0.5-0.9,0.1,1.2,0.1,1.3c3.4-0.3,6.7-0.6,10.1-0.8c3.2-0.3,6.4,0.2,9.6,0
		c0.2,0,1.7-1.2,1.3,0.7c-0.4,1.8-4,1.6-5.3,1.9c-1.2,0.3-1.8,1-3.5,1.3c-1.6,0.4-3.1,0.6-4.7,1c-1.2,0.3-2.7,0.1-3.9,0.6
		c-0.8,0.4-1.7,0.9-3,1c-1.4,0.1-2.4,0-3.1,1.3c-0.7,1.4-0.6,3.5-1.1,5c-0.2,0.5-2.5,7.4-3.1,7.3c-0.2,0,0.2-0.7,0.1-0.8
		c-0.4,0.9-0.7,1.9-1,2.7l0.4-0.4c0.1,0.1-3.7,11.9-4,12.9c-1.2,3.6-1.7,8-4.1,10.7c-0.6,0.7,0.5,0.6-1,1.1c-1.6,0.5-4.4-1.1-5.7-2
		c-1.5-1-2.7-2.5-3-4.3c-0.2-1.7,0.6-2.1,1.1-3.3l-0.4,0.4c-0.3,0,1.2-4.2,1.6-4.2c0,0.1-0.1,0.3-0.1,0.5l3.2-8.1
		c-0.8,2-1.5,3.4-1.5,3.3c0.1,0,6.9-17.6,7.5-19.2c-2.3,0.1-7.3-2.1-4.7-4.9c0.6-0.6,1.5-0.7,2.2-0.8l3-0.5c2-0.5,2-0.7,2.6-2.6
		c0.8-2.4,1.6-4.7,2.6-7.1c1.7-4,4.1-8.1,5.5-11.9l-0.6,0.8c-0.2,0,1-3.6,1.1-4c0.6-1.5,1-2.9,1.5-4.3c-3.1,0.2-11.3,0-9.6-5.3
		c0.7-2,2.7-1.9,4.5-2c1.4-0.1,2.7-0.1,4.1-0.3c0.8,0,2,0,2.8-0.3c1.1-0.3,1.1-0.1,1.5-1.4c0.4-1.2,0.6-2.7,1.3-3.8
		c2.3-3.8,7.5,1.2,7.4,4.3c5.9-1,12.2-0.9,18.2-1.7c3-0.4,6.1-0.8,9.2-1.4c0.6-0.1,3.4-0.3,3.8-0.7C311.1,17.4,303.9,21,303.2,21.2z
		 M252.1,67.3l1.3-3.1C253.1,64.3,252.5,66.1,252.1,67.3z M261.9,63.3v-0.1c-2.8,7.5-6,14.9-8.5,22.4c1.2-3.3,3-6.5,4.3-9.8
		C259.2,71.7,260.6,67.5,261.9,63.3C261.8,63.6,261.8,63.7,261.9,63.3z M261.9,63.2c0-0.1,0-0.1,0.1-0.2v-0.1
		C261.9,63,261.9,63.1,261.9,63.2z M262.1,62.7v-0.1c-0.1,0.1-0.1,0.2-0.1,0.3C262,62.8,262.1,62.7,262.1,62.7z"/>
	<path fill="#FFFDFD" d="M333.3,72.1c-1.3,3-2.8,5.7-4.4,8.4c-1.9,3-3.8,5.9-6,8.5c-1.8,2.3-4.3,5.2-7.3,5.7
		c-3.4,0.6-6.1-2.2-7.2-5.2c-2.4-5.9-0.7-12.1,1.1-17.8c0,0,0-0.9,0.1-1.6c-1,1.5-2.4,3.3-3.3,4.7c-1.2,1.9-2.1,3.8-3.4,5.6
		c-0.6,0.9-8.8,10.8-9.9,9.1c0,0,1.2-0.5,1.1-0.7c-1.2,0.8-2.8,1-4.2,0.6c0.3,0.2,0.5,0.3,0.4,0.3c-2.3,0.3-4.1-3.3-4.6-4.9
		c-0.8-2.8-0.6-5.9-0.1-8.7c1.1-5.8,3.5-12.1,6.9-17.1c0.9-1.2,1.8-2.6,3.1-3.5c0.8-0.7,1.5-0.8,2.4-1.4c1.5-1.3,2.8-2.4,5-2.4
		c4.9,0,6.9,5.6,7.9,9.4c2.4-3.1,6.7-7.2,10.4-2.7c2,2.4,0.7,4.2-0.4,6.4c-1.9,3.5-3.4,7.8-4.2,11.4c0.1-0.3,0.4-1.8,0.8-1.9
		c0.8-0.2-6.4,22.4,3.9,9.7c3.1-3.9,5.8-8,8.5-12.1c1.2-1.9,2.4-3.9,3.7-5.8c0.6-0.8,2.4-2.7,2.5-0.5
		C336.3,67.9,334.1,70.2,333.3,72.1z M307.9,64.7c0-0.8-2-6.3-1.5-6.7c0.1-0.1,1,2.8,1.1,3c-0.3-1.2-0.7-4.9-2.5-4.9
		c-3.3,0-5.8,6.1-6.9,8.4c-2,4.5-3.8,9.3-4.6,14.2c0.3-1.5,6.1-19.6,7.9-19.5c-1.4,0.3-6.7,15.7-7,17.1c-0.2,0.8-1.8,6-0.3,6.5
		c1,0.3,3.4-2.8,3.9-3.5c1.9-2.3,3.7-4.7,5.4-7.2l2.6-3.7c0.4-0.7,0.9-1.4,1.4-2.1C307.9,65.5,307.9,65.5,307.9,64.7z M308.2,64v1
		C308.5,64.7,308.5,64.4,308.2,64z M310.6,68.8l-0.5,0.7c-0.1,0.3-0.4,1.7-0.4,1.7L310.6,68.8z"/>
	<path fill="#FFFDFD" d="M368.5,69.7c-0.8,1.7-1.8,3.3-2.9,4.9c-2.3,3.4-4.8,6.8-7.2,10.2c-2.4,3.3-5,6.6-8.2,9.3
		c-0.6,0.4-5.2,4.1-5.5,4c0-0.1,0.1-0.2,0.2-0.3l-0.7,0.3c0.5-0.1-1.4,1.2-1.9,1.4c-1.4,0.3-2.9-0.1-4.1-0.9c-1.3-0.8-2-2-2.6-3.4
		c-1-2.2-1.1-4.3-0.7-6.7c0.1-0.5,1.5-6.3,2.2-6.2c0.2,0-0.2,0.8-0.1,0.9l0.7-2.5c-0.3-0.1,5-11.3,5.5-12c-3,0.6-6.8,0.5-8.9-2.1
		c-0.6-0.8-0.4-1.5-0.6-2.1c-0.3-0.8-0.7-1.2-0.9-1.9c-1-4.9,4.7-11.7,9.5-8.4l-0.2-0.3c0.1-0.6,1.3,0.9,1.4,1.4
		c0,0.4-0.8,3.2-1.3,3c-0.1,0,0.6-1.8,0.6-1.9c-0.7,1.9-2.8,4-3,6c-0.2,1.5,0.6,1.5,1.9,1.8c1.9,0.5,4.9,0.2,7.3,0.9
		c-1.6-0.5-3.5-0.6-4.8-0.8c0,0-0.1,0-0.1-0.1c1.5,0.2,3.1,0.2,4.4,0.5c2.9,0.7,4.7,1.8,3.5,4.9c-1.2,2.9-2.7,5.8-4,8.7
		c-1.2,2.8-2.2,5.8-3.3,8.7c-0.3,1-2.5,5.2-1.7,6.2c1,1.2,6.5-3.8,8-5.4c-0.3,0.3-0.6,0.3-0.8,0.5c-0.2,0,2-2.8,2.3-3.2l2.9-3.7
		l5.4-7.1l5.5-7.4c0.5-0.6,2.9-4.1,3.5-1.5C370.1,66.8,369.1,68.5,368.5,69.7z M337.5,96.7c-0.1-0.1-0.2-0.2-0.2-0.3l0.1,0.1
		c-0.5-1.1-1-2.2-1.2-2.8l0.3,1.3l-0.4-2.1v-0.1c-0.1-0.2-0.1-0.3-0.1-0.3s0,0.1,0.1,0.2v-0.5c-0.1-1.4,0-2.7,0.2-4v-0.1
		c-0.2,0.9-0.3,1.7-0.3,2.7c-0.1,1.2,0,2.6,0.3,3.8c0.1,0.3,0.9,2,1.5,2.8c0-0.1,0-0.2-0.1-0.2c0.6,0.6,1.4,1.1,2.3,1.4
		c-1.1-0.4-1.9-1.2-2.5-2V96.7z M336.3,88v0.1c0-0.1,0.1-0.2,0.1-0.3C336.4,87.9,336.3,87.9,336.3,88z M336.6,86.1
		c0,0.2-0.1,0.3-0.1,0.4C336.5,86.4,336.6,86.3,336.6,86.1z M336.8,86.1c0.7-2.6,1.8-5.1,2.8-7.5l1.9-4.4c0.5-0.9,2.6-5.8,3.1-6.1
		c-0.7,0.2-2.1,3.8-2.3,4.1c-0.9,1.7-1.7,3.4-2.4,5.2C338.7,80.2,337.5,83.1,336.8,86.1z M337,95.9c0-0.1-0.1-0.2-0.1-0.2
		C336.9,95.8,337,95.8,337,95.9z M339.9,62.7c0,0,0-0.1,0.1-0.1L339.9,62.7z M339.9,62.8c0.1,0.2,0.7,0.7,0.7,0.7
		c0.5,0.4,1.2,0.6,2,0.7c-0.9-0.1-1.8-0.2-2.3-0.6C340.1,63.5,339.9,63,339.9,62.8z M350.8,71.3l-2.1,4.5l2.1-4.4V71.3z M350.8,71.2
		h0.1v-0.1L350.8,71.2z M350.8,71.2h0.1v-0.1L350.8,71.2z"/>
	<path fill="#FFFDFD" d="M419.9,73.5c-2.5,3.6-5,7.3-7.8,10.7c-1.9,2.5-5.4,7.2-8.9,7.3c-0.7,0.1-4.9-1.3-4.7-2.1l0.1,0.1
		c-0.2-0.1-0.2-0.3-0.3-0.5c0,0.2-1.4-1.2-1.6-1.7c-0.6-1.1-0.9-2.4-1.1-3.6c-0.3-2-0.3-3.9-0.3-5.8c0-2.1,0.3-4,1-6
		c0.1-0.4,1.9-6,2.5-5.9c0.1,0-0.3,0.8-0.1,0.9c0.3-1,0.7-2,1.1-3.1c-0.1,0.2-0.2,0.4-0.4,0.6c-0.1-0.1,2.7-6.9,3.2-8
		c-3.3,3.1-5,7.4-8.3,10.6c-2.1,2.1-3.7,6.1-5.4,8.9c-1.4,2.4-2.7,6-5.9,2.9c-0.9-0.8-1.4-1.9-1.6-3.1c-0.1-1.3,0.4-2.6,0.7-3.8
		c0.3-1.1,0-1.5,0.1-2.7c0.4-3.6,2.7-7.1,4-10.5c0.3-1.1,3.5-7.2,1.9-7.3c-0.2-0.1-1.7,2-2,2.3c-1.2,1.4-2.4,2.9-3.4,4.4
		c-3.3,5.1-5.4,10.2-8.2,15.5c-1.1,2.1-2,4.2-3,6.2c-0.4,1-1.1,1.9-1.4,2.9c0,0.3-0.1,1.1-0.2,1.3c-1,1.8-4.9-0.8-5.9-2
		c-2.1-2.5-1.3-4.8-1.4-7.6c-0.2-3.7,1.2-7.3,2.4-10.8c0.5-1.7,1.2-3.4,2-5.1c0.5-0.9,1.3-1.7,1.7-2.7c0.3-0.5-0.1-1,0.8-1.4
		c0.7-0.3,1.7,0.3,2.3,0.8c0.8,0.7,1.3,2,1.8,2.6c0.5,0.7,1.5,1.2,1.1,2.6c0,0.2-0.2,0.4-0.3,0.6c-0.6,1-1.5,1.9-2.2,2.9
		c-0.3,0.4-0.8,1-0.9,1.5c-0.2,0.7,0,1-0.2,1.7c-0.3,1.4-1.1,2.6-1.4,4c-0.2,0.9-0.6,2-0.6,2.9c0,1,0.4,1.8,0.2,2.9
		c1.5-2.4,2.2-5.4,3.6-8c1.6-3.2,3.2-6.6,5.1-9.7c1.6-2.5,3.5-4.9,5.1-7.5c1.3-2.1,3.5-5.1,6.1-5.4c3.6-0.5,6.4,3.9,5.6,7.1
		c-0.7,2.5-2.2,5-3.1,7.4c-1.2,3.5-2.2,7.1-3.2,10.6c1.2-2.5,2.7-4.9,4.3-7.4l-2,2.7c-0.1-0.7,8.2-11.5,9.2-12.5
		c2.7-2.6,8.4-5.4,9.9,0.1c1.3,4.8-1.2,10.4-2.9,14.7c-1.6,3.8-3.9,8.3-4.7,12.1c0.1-0.2,0.2-0.4,0.4-0.6c0,0-0.7,4.8,0.2,5
		c1.9,0.4,5.8-5,6.9-6.2c2.7-3,5.3-6.2,7.9-9.3c0.5-0.6,4.9-6.6,5.6-4.4c0.1,0.2,0,0.1,0,0.1C423.9,68.3,421.2,71.6,419.9,73.5z
		 M387.5,59L387.5,59c0.6-1.4,2.4-6.1,1.8-7.5c0.4,1.6-2,7.8-2.4,8.6c-1,2.3-2.2,4.6-3,7c-0.7,2-1.4,4.7-1.4,7
		c0.2-2.2,1.2-4.6,2-6.6c1-2.7,1.6-5.6,2.8-8.1C387.3,59.4,387.4,59.2,387.5,59l-0.1,0.1L387.5,59z"/>
	<path fill="#FFFDFD" d="M455.7,66.3c0.4,3.2-4.6,5.8-6.7,7.3c-2.9,2.1-5.8,4.1-9,5.8c-0.8,0.4-2,0.8-2.8,1.4
		c-1.1,0.9-0.9,0.8-0.7,2.4c0.3,1.8,0.5,3.6,0.5,5.5c0.1,2.8-0.2,5.6-1.2,8.3c-2.4,6.2-7.2,10.2-14.1,10c-6.1-0.1-12.6-3.3-11.3-9.9
		c-0.1,0.2-0.4,1.9-0.5,1.8c-0.7-0.4,0-2.6,0.2-3.1c1.2-3.7,4.4-6.6,7.4-8.9c1.7-1.3,3.4-2.6,5.1-3.7c1.3-0.8,4.3-2,4.5-3.4
		c0.3-1.4-1-4.4-1.4-5.9c-0.4-1.9-1.1-3.9-1.3-5.9c-0.1-1.3,0.3-2.1,0-3.3c-0.5-1.6-1-3.1-1.1-4.8c-0.1-1.7-0.1-3.4,0.5-5
		c0.8-2.4,6.1-7.9,8.8-5.4c0-0.5,1.3,1.4,1.4,2c0,0.4-0.4,4.1-1,4c0,0,0.2-0.9,0.3-1.6c-0.5,1.4-1.3,2.7-1.4,4.2
		c-0.2,1.3,0.1,2.8,0.3,4c0-0.2,0-0.4,0.2-0.5c-0.1,0,1,5.2,1.9,9.4c-0.7-2.7-1.6-5.9-2-7.8c0.8,4.4,1.8,8.7,2.8,13
		c0.1-0.1,0.2-0.3,0.1-0.8c0.1,0.3,0.2,0.5,0.2,0.6c4.4-2.2,8.5-4.3,12.6-6.9c1.8-1.2,3.7-3.2,5.6-4.1c1-0.4,1.8-0.2,2.1,1.2V66.3z
		 M419.7,100.5l2.8-1.1c0.1,0.1-0.8,0.7-0.8,0.8c1.2-0.7,2.2-1.6,3.1-2.7l-0.5,0.4c0.8-0.8,2.7-4.8,2.8-5.2c0.7-2.4,0.7-4.8,0.6-7.2
		c-0.2,0.2-0.5,0.3-0.7,0.4l0.7-0.6l-1.2,0.7c0.6-0.2-1.3,1.3-1.6,1.5l-3,2c-2,1.4-4.2,2.9-5.7,4.9c-0.9,1.3-3.5,5.4-0.9,6.2
		C416.7,101.1,418.3,100.8,419.7,100.5z M433,98.4c-2.9,4.1-8,6.5-12.9,6.8c2.7-0.1,5.2-0.6,7.8-1.7
		C430.5,102.3,431.9,100.6,433,98.4z M434.6,72.3c0.3,1.1,0.5,2.1,0.6,2.8C435,74.5,434.8,73.4,434.6,72.3z M436.4,85
		c0,0.2,0,0.4,0.1,0.5C436.5,85.4,436.4,85.2,436.4,85z"/>
</g>
</svg>
