<svg id="Layer_1" data-name="Layer 1" xmlns="http://www.w3.org/2000/svg" viewBox="0 0 448.33 95.18"><defs><style>.cls-1{fill:#ef7215;}</style></defs><path class="cls-1" d="M154.58,336.16a4.55,4.55,0,0,1-.8,3c-2.8,4.4-6.8,9.7-12.4,10.7a8.83,8.83,0,0,1-6-1.1c-.4-.3-5.7-4.2-5.7-4.6a.76.76,0,0,1,.4.1.91.91,0,0,0-.5-.3c.3.3-1-.5-1.2-.6a8.9,8.9,0,0,1-1.9-2,37.63,37.63,0,0,0-3.4-3.5c-.5-.4-5.2-5.9-4.5-6.6.1-.1.4.5.6.3l-1.3-1.6v.2c-.2.3-6.1-9.1-6.7-10-1-1.6-2.41-3.4-2.91-5.3a.51.51,0,0,1,.31-.7,1.44,1.44,0,0,0-.81-.9l-1.79-3.5c-.91,2.9-1,5.8-2,8.7-1.3,4.3-2.3,8.5-3.3,12.7l-1.2,5.2c-.3,1.3-.2,3.4-.9,4.6-1.4,2.6-4.6-1.2-5.6-2.7-3-4-1.1-8.7,0-13a110.39,110.39,0,0,1,3.3-11.2,66.6,66.6,0,0,0,2.2-8.8c2.2-7.6,5-15.1,7.41-22.7,2.29-6.7,4.5-13.5,7.3-20.2a27.51,27.51,0,0,1,1.7-4.1l.7-1.7a.76.76,0,0,1-.2-.4c1.3-2.3,5.1-1.2,6.8.1,3.5,2.4.5,4.6-.7,7.4a21.76,21.76,0,0,0-.5,2.9c-.6,2.1-1.7,4.2-2.4,6.2-1.1,2.8-2.1,5.6-3.1,8.5l-1.8,4.5a15.5,15.5,0,0,0-1.2,4.7c-.6,3.1-2.4,6-3.21,9.1a129.85,129.85,0,0,0,13.71-12c4.3-4.7,9-8.7,13.1-13.7,3.8-4.8,8.8-10.4,10.5-16.3.3-1,0-2.2,1.5-1.9,2.1.5,3.8,4.5,4.2,6.4v.2c.7,4.3-1.5,7.5-4.3,10.8-2,2.3-3.8,4.6-6,6.9a26.16,26.16,0,0,0-2.4,3.4,26.51,26.51,0,0,1-3.4,3.3c-2.3,2-4.4,4.3-6.7,6.3-1.6,1.3-2.7,2.9-4.2,4.3a65.66,65.66,0,0,1-14.8,10.1,90.91,90.91,0,0,0,7.1,10.4c-.8-1.2-2.4-3.4-3.4-5.1,3.2,4.2,10.4,12.8,11.2,13.8,2.6,2.4,5.2,4.7,7.7,7.2a44.86,44.86,0,0,0,5.6,5.2l-.5-.6a30.16,30.16,0,0,1,4.1,1.7,7.89,7.89,0,0,0,3,.5c2.6-.3,5.6-2.5,7.1-4.4C153.28,335,154.18,333.46,154.58,336.16Zm-51.91-35.3c-2.3,8.1-4.9,16.3-6.8,24.4.9-3.1,2.2-6.2,3.2-9.4,1.2-4.2,2-8.4,3-12.5a.37.37,0,0,1,.1-.3Zm9.91,9.6.5.9A4.54,4.54,0,0,1,112.58,310.46Zm.6,1.1.4.5Zm7,9.5a32.18,32.18,0,0,0,2.4,2.8l-1.7-2.1Z" transform="translate(-91.36 -254.82)"/><path class="cls-1" d="M194.08,315.06a74.09,74.09,0,0,1-4.4,8.4,75.92,75.92,0,0,1-6,8.5c-1.8,2.3-4.3,5.2-7.3,5.7-3.4.6-6.11-2.2-7.21-5.2-2.4-5.9-.69-12.1,1.1-17.8a12.39,12.39,0,0,1,.11-1.6c-1,1.5-2.4,3.3-3.31,4.7-1.19,1.9-2.1,3.8-3.4,5.6-.6.9-8.8,10.8-9.9,9.1,0,0,1.2-.5,1.1-.7a5.16,5.16,0,0,1-4.2.6c.3.2.5.3.4.3-2.3.3-4.1-3.3-4.6-4.9a19.66,19.66,0,0,1-.1-8.7,47.05,47.05,0,0,1,6.9-17.1,14.71,14.71,0,0,1,3.1-3.5,18.84,18.84,0,0,1,2.4-1.4c1.5-1.3,2.8-2.4,5-2.4,4.9,0,6.91,5.6,7.91,9.4,2.4-3.1,6.7-7.2,10.4-2.7,2,2.4.7,4.2-.4,6.4a46.31,46.31,0,0,0-4.2,11.4c.1-.3.4-1.8.8-1.9.8-.2-6.4,22.4,3.9,9.7,3.1-3.9,5.8-8,8.5-12.1,1.2-1.9,2.4-3.9,3.7-5.8.6-.8,2.4-2.7,2.5-.5S194.88,313.16,194.08,315.06Zm-25.41-7.4c0-.8-2-6.3-1.5-6.7.1-.1,1,2.8,1.1,3-.29-1.2-.69-4.9-2.5-4.9-3.3,0-5.8,6.1-6.9,8.4a59,59,0,0,0-4.6,14.2c.3-1.5,6.1-19.6,7.9-19.5-1.4.3-6.7,15.7-7,17.1-.2.8-1.8,6-.3,6.5,1,.3,3.4-2.8,3.9-3.5q2.85-3.45,5.4-7.2l2.6-3.7c.4-.7.9-1.4,1.4-2.1A2,2,0,0,0,168.67,307.66Zm.31-.7v1C169.27,307.66,169.27,307.36,169,307Zm2.4,4.8-.5.7c-.1.3-.4,1.7-.4,1.7Z" transform="translate(-91.36 -254.82)"/><path class="cls-1" d="M229.28,312.66a35,35,0,0,1-2.9,4.9c-2.31,3.4-4.81,6.8-7.21,10.2a51.59,51.59,0,0,1-8.2,9.3c-.6.4-5.2,4.1-5.5,4,0-.1.1-.2.2-.3l-.7.3c.5-.1-1.4,1.2-1.9,1.4a5.47,5.47,0,0,1-4.1-.9,6.81,6.81,0,0,1-2.6-3.4,11,11,0,0,1-.7-6.7c.1-.5,1.5-6.3,2.2-6.2.2,0-.2.8-.1.9l.7-2.5c-.3-.1,5-11.3,5.5-12-3,.6-6.8.5-8.9-2.1-.6-.8-.4-1.5-.6-2.1-.3-.8-.7-1.2-.9-1.9-1-4.9,4.7-11.7,9.5-8.4l-.2-.3c.1-.6,1.3.9,1.4,1.4s-.8,3.2-1.3,3c-.1,0,.6-1.8.6-1.9-.7,1.9-2.8,4-3,6-.2,1.5.6,1.5,1.9,1.8,1.9.5,4.9.2,7.3.9a32,32,0,0,0-4.8-.8.1.1,0,0,1-.1-.1c1.5.2,3.1.2,4.4.5,2.9.7,4.7,1.8,3.5,4.9-1.2,2.9-2.7,5.8-4,8.7s-2.2,5.8-3.3,8.7c-.3,1-2.5,5.2-1.7,6.2,1,1.2,6.5-3.8,8-5.4-.3.3-.6.3-.8.5a29.62,29.62,0,0,1,2.3-3.2l2.9-3.7,5.4-7.1,5.51-7.4c.5-.6,2.9-4.1,3.5-1.5C230.88,309.76,229.88,311.46,229.28,312.66Zm-31,27c-.1-.1-.2-.2-.2-.3l.1.1c-.5-1.1-1-2.2-1.2-2.8l.3,1.3-.4-2.1v-.1a.77.77,0,0,1-.1-.3.31.31,0,0,0,.1.2v-.5a17.6,17.6,0,0,1,.2-4v-.1a11.76,11.76,0,0,0-.3,2.7,12.22,12.22,0,0,0,.3,3.8,16.06,16.06,0,0,0,1.5,2.8c0-.1,0-.2-.1-.2a5.94,5.94,0,0,0,2.3,1.4,5.58,5.58,0,0,1-2.5-2Zm-1.2-8.7v.1c0-.1.1-.2.1-.3C197.17,330.86,197.07,330.86,197.07,331Zm.3-1.9c0,.2-.1.3-.1.4C197.27,329.36,197.37,329.26,197.37,329.06Zm.2,0a60.93,60.93,0,0,1,2.8-7.5l1.9-4.4c.5-.9,2.6-5.8,3.1-6.1-.7.2-2.1,3.8-2.3,4.1a49,49,0,0,0-2.4,5.2A52.94,52.94,0,0,0,197.57,329.06Zm.2,9.8a.35.35,0,0,0-.1-.2C197.67,338.76,197.77,338.76,197.77,338.86Zm2.9-33.2a.1.1,0,0,1,.1-.1Zm0,.1a4.51,4.51,0,0,0,.7.7,4,4,0,0,0,2,.7,4.84,4.84,0,0,1-2.3-.6A1.23,1.23,0,0,1,200.67,305.76Zm10.9,8.5-2.1,4.5,2.1-4.4Zm0-.1h.1v-.1Zm0,0h.1v-.1Z" transform="translate(-91.36 -254.82)"/><path class="cls-1" d="M271.38,315.06A75.85,75.85,0,0,1,261,332c-1.8,2.3-4.3,5.2-7.3,5.7-3.4.6-6.1-2.2-7.2-5.2-2.4-5.9-.7-12.1,1.1-17.8a13.61,13.61,0,0,1,.1-1.6c-1,1.5-2.4,3.3-3.3,4.7-1.2,1.9-2.1,3.8-3.4,5.6-.6.9-8.8,10.8-9.9,9.1,0,0,1.2-.5,1.1-.7a5.16,5.16,0,0,1-4.2.6c.3.2.5.3.4.3-2.3.3-4.1-3.3-4.6-4.9a19.66,19.66,0,0,1-.1-8.7,47.05,47.05,0,0,1,6.9-17.1,14.71,14.71,0,0,1,3.1-3.5,18.84,18.84,0,0,1,2.4-1.4c1.5-1.3,2.8-2.4,5-2.4,4.9,0,6.9,5.6,7.9,9.4,2.4-3.1,6.7-7.2,10.4-2.7,2,2.4.7,4.2-.4,6.4a46.31,46.31,0,0,0-4.2,11.4c.1-.3.4-1.8.8-1.9.8-.2-6.4,22.4,3.9,9.7,3.1-3.9,5.8-8,8.5-12.1,1.2-1.9,2.41-3.9,3.7-5.8.6-.8,2.41-2.7,2.51-.5S272.17,313.16,271.38,315.06ZM246,307.66c0-.8-2-6.3-1.5-6.7.1-.1,1,2.8,1.1,3-.3-1.2-.7-4.9-2.5-4.9-3.3,0-5.8,6.1-6.9,8.4a59,59,0,0,0-4.6,14.2c.3-1.5,6.1-19.6,7.9-19.5-1.4.3-6.7,15.7-7,17.1-.2.8-1.8,6-.3,6.5,1,.3,3.4-2.8,3.9-3.5q2.85-3.45,5.4-7.2l2.6-3.7c.4-.7.9-1.4,1.4-2.1A2,2,0,0,0,246,307.66Zm.3-.7v1C246.57,307.66,246.57,307.36,246.27,307Zm2.4,4.8-.5.7c-.1.3-.4,1.7-.4,1.7Z" transform="translate(-91.36 -254.82)"/><path class="cls-1" d="M307.47,280.76c.1,1.4-1.6,2.5-2.8,2.8s-2.8-.4-4-.2c-.7.2-.5.5-1.1.7a9.47,9.47,0,0,1-2.9.2c-1.3,0-4.1-.7-5.2,0a1.7,1.7,0,0,0-.6.6l.3-.6c-.6.1-1.6,2.8-2.3,4.6l1.1-2.2-1.4,3.8c-1,2.1-1.9,4.3-2.8,6.4-1.8,4.2-3.4,8.3-5,12.6a222.58,222.58,0,0,0-7.2,24.1c-.3,1.4-2,7.2-.1,8,.3.2,2.4-1,2.3-.9.5-.5,1.1-1,1.6-1.6-.4.3-1.5,1.2-1.5,1-.1-.6,2.4-2.6,2.8-3.1,1-1,1.9-2.1,2.8-3.1l5.8-7.1c3.6-4.5,7-9.1,10.6-13.6.8-1,2.6-4.5,3.9-4.8,1.6-.3,1.9,1.3,1.4,2.6-.9,2.7-3.6,4.9-5,7.3-2.5,4.2-5.5,8.1-8.4,12.1-3.2,4.3-6.4,8.6-9.9,12.7-1.6,2-3.7,4.8-6.2,6-1.9.9-4.4-.2-6-1.4a7.6,7.6,0,0,1-3.2-5c-.1-.6-.7-3.8-.1-4.5v1.5l.2-2c-.2.4-.2-.9-.2-1.1a10.86,10.86,0,0,1,.4-2.5,39.38,39.38,0,0,1,1-4.7c.7-3.1,1.5-6.2,2.1-9.4a57,57,0,0,1,2.6-9.2c.2-.5,2.2-6.6,2.7-6.6a6.88,6.88,0,0,1-.2,1.3c.4-1.5,1-3,1.5-4.5-.2.5-.5,1-.5.8,0-1.2,1.3-3.3,1.7-4.4l1.2-3.5a96.1,96.1,0,0,1,3.6-9.4c-2.8.2-5.5,0-8.1.5-3.8.7-8.6.3-12.4-.2-.5-.1-2.9-.2-2.3-1.3a11.49,11.49,0,0,1,2.8-.9,19.55,19.55,0,0,1,5.9-.8c3.9-.4,7.7-.2,11.6-.7,1-.1,2.7.2,3.6-.2s.9-1,1.3-1.9c.7-1.8,1.5-3.6,2.3-5.3a37.06,37.06,0,0,1,2.9-5.6c.8-1.1,1.6-1.4,2.2-2.6a33,33,0,0,1,4.5-7.7c2-2.6,5.5-3,8.6-2.4,1.5.3,3.6,1.2,2.9,3.2-.3.8-1.3,1.3-1.9,1.9,0,.1.9-.9.9-.5-.1.7-3.8,5.8-4.1,5.7-.1,0,1.4-2.5,1.5-2.7a147.62,147.62,0,0,0-10,17.8c.3,0,.6-.4,1-1.1a6.42,6.42,0,0,0-.5,1.1c3.9-.2,7.9-.2,11.9-.4.8,0,2.3-1.1,2.4.3Zm-35.8,61.5c.1.1.2.2.3.2Zm29.8-80.8c-8,11.3-13,24.7-18.6,37.2a165.3,165.3,0,0,0-8.3,22.6c-1,3.5-1.8,7-2.5,10.6l.5-1.9a112.17,112.17,0,0,1,4.4-13.9c3.6-9.9,7-20.1,11.5-29.6C292.47,278,296.07,269.16,301.47,261.46ZM284.87,298c-.9,2-1.6,4-2.4,5.9.8-1.8,1.6-3.6,2.3-5.5A.76.76,0,0,1,284.87,298Zm9.9-20.7-1,2.2A23.46,23.46,0,0,0,294.77,277.26Zm2.7-5.3-2.4,4.6C296.07,274.26,297,272.06,297.47,272Z" transform="translate(-91.36 -254.82)"/><path d="M387.17,264.16c-1.3.4-1.1.6-2.1,1.4s-3.4,1.4-4.7,1.7c-5.3,1.4-10.2,2.8-15.5,3.2a28.68,28.68,0,0,0-4.1.5c-1.3.4-1,.2-1.5,1.7l-.8,2.2c-.9,2.9-1.7,5.9-2.6,8.9a49.35,49.35,0,0,1-3.3,8.6c-.4.6-1.6,4.5-1.8,4.5v-.3l-.3.8c.5-.9.1,1.2.1,1.3,3.4-.3,6.7-.6,10.1-.8,3.2-.3,6.4.2,9.6,0,.2,0,1.7-1.2,1.3.7s-4,1.6-5.3,1.9-1.8,1-3.5,1.3-3.1.6-4.7,1c-1.2.3-2.7.1-3.9.6a7.55,7.55,0,0,1-3,1c-1.4.1-2.4,0-3.1,1.3s-.6,3.5-1.1,5c-.2.5-2.5,7.4-3.1,7.3-.2,0,.2-.7.1-.8-.4.9-.7,1.9-1,2.7l.4-.4c.1.1-3.7,11.9-4,12.9-1.2,3.6-1.7,8-4.1,10.7-.6.7.5.6-1,1.1s-4.4-1.1-5.7-2a6.63,6.63,0,0,1-3-4.3c-.2-1.7.6-2.1,1.1-3.3l-.4.4c-.3,0,1.2-4.2,1.6-4.2a4.33,4.33,0,0,0-.1.5l3.2-8.1a24.47,24.47,0,0,1-1.5,3.3c.1,0,6.9-17.6,7.5-19.2-2.3.1-7.3-2.1-4.7-4.9a3.72,3.72,0,0,1,2.2-.8l3-.5c2-.5,2-.7,2.6-2.6.8-2.4,1.6-4.7,2.6-7.1,1.7-4,4.1-8.1,5.5-11.9l-.6.8c-.2,0,1-3.6,1.1-4,.6-1.5,1-2.9,1.5-4.3-3.1.2-11.3,0-9.6-5.3.7-2,2.7-1.9,4.5-2,1.4-.1,2.7-.1,4.1-.3a8.92,8.92,0,0,0,2.8-.3c1.1-.3,1.1-.1,1.5-1.4a17.06,17.06,0,0,1,1.3-3.8c2.3-3.8,7.5,1.2,7.4,4.3,5.9-1,12.2-.9,18.2-1.7,3-.4,6.1-.8,9.2-1.4.6-.1,3.4-.3,3.8-.7C395.07,260.36,387.87,264,387.17,264.16Zm-51.1,46.1,1.3-3.1C337.07,307.26,336.47,309.06,336.07,310.26Zm9.8-4v-.1c-2.8,7.5-6,14.9-8.5,22.4,1.2-3.3,3-6.5,4.3-9.8,1.5-4.1,2.9-8.3,4.2-12.4C345.77,306.56,345.77,306.66,345.87,306.26Zm0-.1c0-.1,0-.1.1-.2v-.1A.37.37,0,0,0,345.87,306.16Zm.2-.5v-.1a.37.37,0,0,0-.1.3A.35.35,0,0,1,346.07,305.66Z" transform="translate(-91.36 -254.82)"/><path d="M417.27,315.06a74.09,74.09,0,0,1-4.4,8.4,75.92,75.92,0,0,1-6,8.5c-1.8,2.3-4.3,5.2-7.3,5.7-3.4.6-6.1-2.2-7.2-5.2-2.4-5.9-.7-12.1,1.1-17.8a13.61,13.61,0,0,1,.1-1.6c-1,1.5-2.4,3.3-3.3,4.7-1.2,1.9-2.1,3.8-3.4,5.6-.6.9-8.8,10.8-9.9,9.1,0,0,1.2-.5,1.1-.7a5.16,5.16,0,0,1-4.2.6c.3.2.5.3.4.3-2.3.3-4.1-3.3-4.6-4.9a19.66,19.66,0,0,1-.1-8.7,47.05,47.05,0,0,1,6.9-17.1,14.71,14.71,0,0,1,3.1-3.5,18.84,18.84,0,0,1,2.4-1.4c1.5-1.3,2.8-2.4,5-2.4,4.9,0,6.9,5.6,7.9,9.4,2.4-3.1,6.7-7.2,10.4-2.7,2,2.4.7,4.2-.4,6.4a46.31,46.31,0,0,0-4.2,11.4c.1-.3.4-1.8.8-1.9.8-.2-6.4,22.4,3.9,9.7,3.1-3.9,5.8-8,8.5-12.1,1.2-1.9,2.4-3.9,3.7-5.8.6-.8,2.4-2.7,2.5-.5S418.07,313.16,417.27,315.06Zm-25.4-7.4c0-.8-2-6.3-1.5-6.7.1-.1,1,2.8,1.1,3-.3-1.2-.7-4.9-2.5-4.9-3.3,0-5.8,6.1-6.9,8.4a59,59,0,0,0-4.6,14.2c.3-1.5,6.1-19.6,7.9-19.5-1.4.3-6.7,15.7-7,17.1-.2.8-1.8,6-.3,6.5,1,.3,3.4-2.8,3.9-3.5q2.85-3.45,5.4-7.2l2.6-3.7c.4-.7.9-1.4,1.4-2.1A2,2,0,0,0,391.87,307.66Zm.3-.7v1C392.47,307.66,392.47,307.36,392.17,307Zm2.4,4.8-.5.7c-.1.3-.4,1.7-.4,1.7Z" transform="translate(-91.36 -254.82)"/><path d="M452.47,312.66a35,35,0,0,1-2.9,4.9c-2.3,3.4-4.8,6.8-7.2,10.2a51.59,51.59,0,0,1-8.2,9.3c-.6.4-5.2,4.1-5.5,4,0-.1.1-.2.2-.3l-.7.3c.5-.1-1.4,1.2-1.9,1.4a5.47,5.47,0,0,1-4.1-.9,6.81,6.81,0,0,1-2.6-3.4,11,11,0,0,1-.7-6.7c.1-.5,1.5-6.3,2.2-6.2.2,0-.2.8-.1.9l.7-2.5c-.3-.1,5-11.3,5.5-12-3,.6-6.8.5-8.9-2.1-.6-.8-.4-1.5-.6-2.1-.3-.8-.7-1.2-.9-1.9-1-4.9,4.7-11.7,9.5-8.4l-.2-.3c.1-.6,1.3.9,1.4,1.4s-.8,3.2-1.3,3c-.1,0,.6-1.8.6-1.9-.7,1.9-2.8,4-3,6-.2,1.5.6,1.5,1.9,1.8,1.9.5,4.9.2,7.3.9a32,32,0,0,0-4.8-.8.1.1,0,0,1-.1-.1c1.5.2,3.1.2,4.4.5,2.9.7,4.7,1.8,3.5,4.9-1.2,2.9-2.7,5.8-4,8.7s-2.2,5.8-3.3,8.7c-.3,1-2.5,5.2-1.7,6.2,1,1.2,6.5-3.8,8-5.4-.3.3-.6.3-.8.5a29.62,29.62,0,0,1,2.3-3.2l2.9-3.7,5.4-7.1,5.5-7.4c.5-.6,2.9-4.1,3.5-1.5C454.07,309.76,453.07,311.46,452.47,312.66Zm-31,27c-.1-.1-.2-.2-.2-.3l.1.1c-.5-1.1-1-2.2-1.2-2.8l.3,1.3-.4-2.1v-.1a.77.77,0,0,1-.1-.3.31.31,0,0,0,.1.2v-.5a17.6,17.6,0,0,1,.2-4v-.1a11.76,11.76,0,0,0-.3,2.7,12.22,12.22,0,0,0,.3,3.8,16.06,16.06,0,0,0,1.5,2.8c0-.1,0-.2-.1-.2a5.94,5.94,0,0,0,2.3,1.4,5.58,5.58,0,0,1-2.5-2Zm-1.2-8.7v.1c0-.1.1-.2.1-.3C420.37,330.86,420.27,330.86,420.27,331Zm.3-1.9c0,.2-.1.3-.1.4C420.47,329.36,420.57,329.26,420.57,329.06Zm.2,0a60.93,60.93,0,0,1,2.8-7.5l1.9-4.4c.5-.9,2.6-5.8,3.1-6.1-.7.2-2.1,3.8-2.3,4.1a49,49,0,0,0-2.4,5.2A52.94,52.94,0,0,0,420.77,329.06Zm.2,9.8a.35.35,0,0,0-.1-.2C420.87,338.76,421,338.76,421,338.86Zm2.9-33.2a.1.1,0,0,1,.1-.1Zm0,.1a4.51,4.51,0,0,0,.7.7,4,4,0,0,0,2,.7,4.84,4.84,0,0,1-2.3-.6A1.23,1.23,0,0,1,423.87,305.76Zm10.9,8.5-2.1,4.5,2.1-4.4Zm0-.1h.1v-.1Zm0,0h.1v-.1Z" transform="translate(-91.36 -254.82)"/><path d="M503.87,316.46c-2.5,3.6-5,7.3-7.8,10.7-1.9,2.5-5.4,7.2-8.9,7.3-.7.1-4.9-1.3-4.7-2.1l.1.1c-.2-.1-.2-.3-.3-.5,0,.2-1.4-1.2-1.6-1.7a11.55,11.55,0,0,1-1.1-3.6,38.23,38.23,0,0,1-.3-5.8,17.58,17.58,0,0,1,1-6c.1-.4,1.9-6,2.5-5.9.1,0-.3.8-.1.9.3-1,.7-2,1.1-3.1a2.09,2.09,0,0,1-.4.6c-.1-.1,2.7-6.9,3.2-8-3.3,3.1-5,7.4-8.3,10.6-2.1,2.1-3.7,6.1-5.4,8.9-1.4,2.4-2.7,6-5.9,2.9a5.19,5.19,0,0,1-1.6-3.1,12.17,12.17,0,0,1,.7-3.8c.3-1.1,0-1.5.1-2.7.4-3.6,2.7-7.1,4-10.5.3-1.1,3.5-7.2,1.9-7.3-.2-.1-1.7,2-2,2.3a47,47,0,0,0-3.4,4.4c-3.3,5.1-5.4,10.2-8.2,15.5-1.1,2.1-2,4.2-3,6.2-.4,1-1.1,1.9-1.4,2.9a5.07,5.07,0,0,1-.2,1.3c-1,1.8-4.9-.8-5.9-2-2.1-2.5-1.3-4.8-1.4-7.6-.2-3.7,1.2-7.3,2.4-10.8a35.86,35.86,0,0,1,2-5.1,24.63,24.63,0,0,0,1.7-2.7c.3-.5-.1-1,.8-1.4.7-.3,1.7.3,2.3.8a17.54,17.54,0,0,1,1.8,2.6c.5.7,1.5,1.2,1.1,2.6,0,.2-.2.4-.3.6-.6,1-1.5,1.9-2.2,2.9a4.62,4.62,0,0,0-.9,1.5c-.2.7,0,1-.2,1.7-.3,1.4-1.1,2.6-1.4,4a15,15,0,0,0-.6,2.9,13.68,13.68,0,0,1,.2,2.9c1.5-2.4,2.2-5.4,3.6-8,1.6-3.2,3.2-6.6,5.1-9.7,1.6-2.5,3.5-4.9,5.1-7.5,1.3-2.1,3.5-5.1,6.1-5.4,3.6-.5,6.4,3.9,5.6,7.1-.7,2.5-2.2,5-3.1,7.4-1.2,3.5-2.2,7.1-3.2,10.6a70.64,70.64,0,0,1,4.3-7.4l-2,2.7c-.1-.7,8.2-11.5,9.2-12.5,2.7-2.6,8.4-5.4,9.9.1,1.3,4.8-1.2,10.4-2.9,14.7-1.6,3.8-3.9,8.3-4.7,12.1a2.09,2.09,0,0,1,.4-.6s-.7,4.8.2,5c1.9.4,5.8-5,6.9-6.2,2.7-3,5.3-6.2,7.9-9.3.5-.6,4.9-6.6,5.6-4.4.1.2,0,.1,0,.1C507.87,311.26,505.17,314.56,503.87,316.46ZM471.47,302v.1c.6-1.5,2.4-6.2,1.8-7.6.4,1.6-2,7.8-2.4,8.6-1,2.3-2.2,4.6-3,7a22.93,22.93,0,0,0-1.4,7,25.19,25.19,0,0,1,2-6.6c1-2.7,1.6-5.6,2.8-8.1a1.44,1.44,0,0,1,.2-.3h-.1Z" transform="translate(-91.36 -254.82)"/><path d="M539.67,309.26c.4,3.2-4.6,5.8-6.7,7.3a76.71,76.71,0,0,1-9,5.8,18.29,18.29,0,0,0-2.8,1.4c-1.1.9-.9.8-.7,2.4a33.08,33.08,0,0,1,.5,5.5,21.46,21.46,0,0,1-1.2,8.3c-2.4,6.2-7.2,10.2-14.1,10-6.1-.1-12.6-3.3-11.3-9.9a14.31,14.31,0,0,1-.5,1.8c-.7-.4,0-2.6.2-3.1,1.2-3.7,4.4-6.6,7.4-8.9,1.7-1.3,3.4-2.6,5.1-3.7,1.3-.8,4.3-2,4.5-3.4s-1-4.4-1.4-5.9a56.15,56.15,0,0,1-1.3-5.9c-.1-1.3.3-2.1,0-3.3a19.69,19.69,0,0,1-1.1-4.8,12,12,0,0,1,.5-5c.8-2.4,6.1-7.9,8.8-5.4,0-.5,1.3,1.4,1.4,2,0,.4-.4,4.1-1,4,0,0,.2-.9.3-1.6-.5,1.4-1.3,2.7-1.4,4.2a13.27,13.27,0,0,0,.3,4c0-.2,0-.4.2-.5-.1,0,1,5.2,1.9,9.4-.7-2.7-1.6-5.9-2-7.8.8,4.4,1.8,8.7,2.8,13,.1-.1.2-.3.1-.8a3.93,3.93,0,0,1,.2.6,139.08,139.08,0,0,0,12.6-6.9c1.8-1.2,3.7-3.2,5.6-4.1,1-.4,1.8-.2,2.1,1.2Zm-36,34.2,2.8-1.1c.1.1-.8.7-.8.8a11.39,11.39,0,0,0,3.1-2.7l-.5.4a27.12,27.12,0,0,0,2.8-5.2,22,22,0,0,0,.6-7.2,2.51,2.51,0,0,1-.7.4l.7-.6-1.2.7c.6-.2-1.3,1.3-1.6,1.5l-3,2a24.26,24.26,0,0,0-5.7,4.9c-.9,1.3-3.5,5.4-.9,6.2A8.22,8.22,0,0,0,503.67,343.46Zm13.3-2.1a17.31,17.31,0,0,1-12.9,6.8,21.46,21.46,0,0,0,7.8-1.7A10.13,10.13,0,0,0,517,341.36Zm1.6-26.1a24.17,24.17,0,0,1,.6,2.8A25.68,25.68,0,0,1,518.57,315.26Zm1.8,12.7a.75.75,0,0,0,.1.5A4.33,4.33,0,0,1,520.37,328Z" transform="translate(-91.36 -254.82)"/></svg>