<?xml version="1.0" encoding="UTF-8"?>
<svg xmlns="http://www.w3.org/2000/svg" xmlns:xlink="http://www.w3.org/1999/xlink" width="375pt" height="374.999991pt" viewBox="0 0 375 374.999991" version="1.2">
<defs>
<clipPath id="clip1">
  <path d="M 95 37 L 273 37 L 273 362 L 95 362 Z M 95 37 "/>
</clipPath>
<clipPath id="clip2">
  <path d="M 210.496094 21.800781 L 295.296875 51.945312 L 175.21875 389.738281 L 90.417969 359.59375 Z M 210.496094 21.800781 "/>
</clipPath>
<clipPath id="clip3">
  <path d="M 210.496094 21.800781 L 295.296875 51.945312 L 175.21875 389.738281 L 90.417969 359.59375 Z M 210.496094 21.800781 "/>
</clipPath>
<clipPath id="clip4">
  <path d="M 92 11.082031 L 264.3125 11.082031 L 264.3125 366.582031 L 92 366.582031 Z M 92 11.082031 "/>
</clipPath>
</defs>
<g id="surface1">
<g clip-path="url(#clip1)" clip-rule="nonzero">
<g clip-path="url(#clip2)" clip-rule="nonzero">
<g clip-path="url(#clip3)" clip-rule="nonzero">
<path style=" stroke:none;fill-rule:nonzero;fill:rgb(100%,51.368713%,0%);fill-opacity:1;" d="M 264.3125 125.140625 C 262.859375 119.660156 252.957031 115.9375 242.46875 112.140625 L 272.449219 82.34375 L 265.054688 75.773438 L 235.964844 109.761719 L 235.300781 109.527344 L 269.304688 63.820312 L 261.816406 61.160156 L 228.304688 106.628906 L 259.445312 44.476562 L 253.097656 37.457031 L 221.898438 103.402344 C 213.394531 99.765625 198.777344 95.726562 191.714844 107.359375 C 183 121.734375 177.09375 123.03125 159.074219 180.808594 C 141.050781 238.585938 118.71875 306.386719 105.625 330.015625 C 92.53125 353.644531 95.230469 360.792969 96.679688 361.308594 C 105.316406 364.378906 126.953125 338.347656 137.601562 326.765625 C 148.246094 315.183594 166.132812 287.070312 177.429688 273.476562 C 188.722656 259.882812 242.796875 178.003906 249.699219 166.246094 C 256.597656 154.492188 266.425781 133.167969 264.3125 125.140625 Z M 264.3125 125.140625 "/>
</g>
</g>
</g>
<g clip-path="url(#clip4)" clip-rule="nonzero">
<path style=" stroke:none;fill-rule:nonzero;fill:rgb(0%,0%,0%);fill-opacity:1;" d="M 96.476562 366.582031 C 95.933594 366.582031 95.390625 366.515625 94.851562 366.378906 C 93.96875 366.042969 93.292969 365.367188 93.023438 364.554688 C 91.871094 362.050781 90.449219 353.796875 101.351562 330.933594 C 111.234375 310.164062 126.875 256.179688 147.792969 170.398438 C 160.113281 119.863281 166.683594 108.972656 172.976562 98.417969 C 174.398438 95.984375 175.957031 93.480469 177.445312 90.570312 C 184.285156 77.449219 199.921875 80.152344 209.402344 83.332031 L 238.242188 11.082031 L 247.515625 20.082031 L 224.566406 74.066406 L 248.9375 36.316406 L 259.636719 39.359375 L 241.898438 66.757812 L 253.679688 51.132812 L 264.171875 59.316406 L 234.992188 92.195312 C 245.417969 95.238281 255.710938 98.621094 257.738281 104.710938 C 260.988281 114.585938 249.617188 140.769531 244.945312 150.035156 C 238.988281 161.875 187.195312 252.457031 175.753906 267.949219 C 170.742188 274.78125 164.3125 285.199219 158.082031 295.214844 C 150.636719 307.253906 142.917969 319.703125 137.230469 326.804688 C 135.878906 328.429688 134.386719 330.390625 132.761719 332.421875 C 118.476562 350.484375 105.007812 366.582031 96.476562 366.582031 Z M 95.730469 363.808594 C 103.042969 365.636719 120.914062 342.972656 130.597656 330.730469 C 132.222656 328.632812 133.777344 326.738281 135.066406 325.046875 C 140.683594 318.078125 148.335938 305.699219 155.78125 293.726562 C 162.011719 283.644531 168.441406 273.226562 173.519531 266.328125 C 184.894531 250.835938 236.550781 160.589844 242.441406 148.75 C 249.210938 135.355469 257.605469 113.03125 255.101562 105.457031 C 253.40625 100.3125 242.101562 97 232.148438 94.089844 L 230.117188 93.480469 L 260.175781 59.65625 L 254.152344 54.988281 L 225.988281 92.398438 L 222.601562 91.382812 L 255.4375 40.984375 L 250.15625 39.496094 L 218.335938 88.746094 L 215.96875 87.460938 L 244.335938 20.691406 L 239.324219 15.820312 L 211.027344 86.714844 L 209.808594 86.242188 C 190.039062 79.140625 182.589844 86.648438 179.882812 91.789062 C 178.328125 94.835938 176.769531 97.335938 175.28125 99.839844 C 169.050781 110.191406 162.621094 120.945312 150.433594 171.074219 C 129.445312 256.992188 113.738281 311.179688 103.789062 332.082031 C 93.089844 354.609375 94.648438 362.726562 95.730469 363.808594 Z M 95.730469 363.808594 "/>
</g>
</g>
</svg>
