<?xml version="1.0" encoding="utf-8"?>
<!-- Generator: Adobe Illustrator 24.1.0, SVG Export Plug-In . SVG Version: 6.00 Build 0)  -->
<svg version="1.1" id="Layer_1" xmlns="http://www.w3.org/2000/svg" xmlns:xlink="http://www.w3.org/1999/xlink" x="0px" y="0px"
	 viewBox="0 0 951.72 239.7" style="enable-background:new 0 0 951.72 239.7;" xml:space="preserve">
<style type="text/css">
	.st0{fill:none;}
</style>
<g>
	<rect x="45.2" y="31.3" class="st0" width="906.52" height="158.59"/>
	<path d="M112,36.7c-2.27,5.6-5.53,13.87-9.8,24.8c-9.33,24-16.93,41.93-22.8,53.8c3.87-4.8,9.87-11.6,18-20.4c0-0.67,0-1.63,0-2.9
		c0-1.27,0.07-2.9,0.2-4.9c0.4-1.47,1.07-2.57,2-3.3c0.93-0.73,1.73-0.03,2.4,2.1c0,0.67,0.13,1.67,0.4,3l0.2-0.6
		c3.33-3.73,14.4-13.47,33.2-29.2c18.8-15.73,30-24.43,33.6-26.1c3.6-1.67,6.63-2.5,9.1-2.5c2.47,0,4.17,0.57,5.1,1.7
		c0.93,1.13,1.4,2.27,1.4,3.4c0,1.13-0.57,2.2-1.7,3.2c-1.13,1-2.53,1.9-4.2,2.7c-1.67,0.8-6.87,3.67-15.6,8.6
		c-8.73,4.93-16.7,9.8-23.9,14.6c-17.33,11.73-29.33,21.27-36,28.6c3.07,11.07,6.13,19.8,9.2,26.2c3.07,6.4,7.9,13.63,14.5,21.7
		c6.6,8.07,12.63,12.1,18.1,12.1c2.27,0,3.87-0.6,4.8-1.8c0.93-1.2,1.27-2.73,1-4.6c-0.8-3.73-2-6.77-3.6-9.1
		c-1.6-2.33-1.77-3.5-0.5-3.5c1.27,0,2.47,0.57,3.6,1.7c1.13,1.13,2.2,2.8,3.2,5c1,2.2,1.5,4.1,1.5,5.7
		c-0.13,3.73-1.93,6.67-5.4,8.8c-3.47,2.13-6.8,3.2-10,3.2c-6,0-11.47-1.77-16.4-5.3c-4.93-3.54-9.07-8.37-12.4-14.5
		c-6-11.2-10.33-24.13-13-38.8c-14.93,17.47-25.2,30.07-30.8,37.8c-13.73,22.27-26.87,35.33-39.4,39.2c-3.6,1.2-6.73,1.8-9.4,1.8
		c-9.87,0-16-4.2-18.4-12.6c-0.13-0.53-0.2-1.1-0.2-1.7s0.1-1.33,0.3-2.2c0.2-0.87,0.63-1.17,1.3-0.9c0.67,0.27,1.33,1.53,2,3.8
		c1.33,4,3.87,6.47,7.6,7.4c2.93,0.53,5.5,0.8,7.7,0.8c2.2,0,4.1-0.27,5.7-0.8c13.73-4.4,27.07-18.4,40-42
		c10.4-19.6,20-44.27,28.8-74c-7.07,6.27-15.73,9.93-26,11c-0.93,0-1.6-0.23-2-0.7c-0.4-0.47-0.4-1,0-1.6c0.4-0.6,1.07-0.97,2-1.1
		c5.73-0.53,11.7-3.5,17.9-8.9c6.2-5.4,10.83-11.63,13.9-18.7c0.4-1.73,2.7-2.6,6.9-2.6C110.3,34.1,112.27,34.97,112,36.7z"/>
	<path d="M175,151.9c-2.13,0-4.43-0.63-6.9-1.9c-2.47-1.27-4.57-3.07-6.3-5.4c-1.73-2.33-2.6-4.83-2.6-7.5c0-2.67,0.6-5.2,1.8-7.6
		c2.67-5.6,6.97-11.03,12.9-16.3c5.93-5.27,12.1-9.77,18.5-13.5c6.4-3.73,11.47-6.07,15.2-7c3.73-0.93,7.37-1.4,10.9-1.4
		c3.53,0,6.57,0.9,9.1,2.7c2.53,1.8,3.8,3.7,3.8,5.7c0,0.67-0.07,1.07-0.2,1.2c-0.13,0.13-0.47,0.07-1-0.2
		c-1.6-2.53-4.9-3.8-9.9-3.8s-10.67,1.63-17,4.9c-6.33,3.27-12.3,7.37-17.9,12.3c-4.67,4.4-8.77,9.37-12.3,14.9
		c-3.53,5.53-5.3,9.57-5.3,12.1c0,4.93,1.4,7.4,4.2,7.4s7.07-2.27,12.8-6.8c9.47-8,15.93-13.87,19.4-17.6
		c12.27-13.2,18.87-19.8,19.8-19.8c1.6,0,3.53,0.47,5.8,1.4c2.27,0.93,3,2.07,2.2,3.4c-6.8,9.6-10.8,19.27-12,29
		c-0.13,1.2-0.2,2.73-0.2,4.6c0,1.87,0.53,3.4,1.6,4.6c2,2.13,4.73,2.27,8.2,0.4c3.47-1.87,8.3-5.6,14.5-11.2
		c6.2-5.6,11.17-11.07,14.9-16.4c0.53-0.67,1.13-0.83,1.8-0.5c0.67,0.33,1,0.63,1,0.9c0,2-3.17,6.37-9.5,13.1
		c-6.33,6.73-11.17,11.3-14.5,13.7c-6.27,4.67-12.07,7-17.4,7c-5.07,0-8.47-2.53-10.2-7.6c-0.4-1.6-0.6-3.4-0.6-5.4
		c0-6,1.27-12.33,3.8-19c-0.53,0.27-3,2.93-7.4,8c-4.4,5.07-9.5,9.93-15.3,14.6C184.9,149.57,179.66,151.9,175,151.9z"/>
	<path d="M282.79,154.7c-6.8,0-10.2-4.1-10.2-12.3c0-8.2,5.87-18.3,17.6-30.3c0.93-0.93,1.6-1.67,2-2.2l1.4-2
		c1.87-2.53,2.73-4.13,2.6-4.8l-0.6-1.8c-0.53-1.6-2.73-2.77-6.6-3.5c-3.87-0.73-7-1.1-9.4-1.1c-12,16.93-18.93,26.6-20.8,29
		c-1.87,2.4-3.13,3.4-3.8,3c-0.67-0.4-1-0.87-1-1.4c0-0.53,0.4-1.33,1.2-2.4c7.2-8.8,13.4-18.2,18.6-28.2
		c-1.6-0.27-2.8-0.83-3.6-1.7c-0.8-0.87-0.87-2.33-0.2-4.4c0.67-2.07,2.7-4.83,6.1-8.3c3.4-3.47,6.37-5.8,8.9-7
		c2.53-1.2,4.13-1.93,4.8-2.2c0.67-0.27,1.4-0.4,2.2-0.4c1.6,0,1.07,2.4-1.6,7.2l-7.8,12.4c6,0.4,11.13,0.6,15.4,0.6l7-0.2
		c2.27,0,3.93,0.3,5,0.9c1.07,0.6,1.33,1.63,0.8,3.1c-0.93,2.53-3.27,5.93-7,10.2c-8,9.33-14,19.27-18,29.8
		c-0.93,2.53-1.4,4.73-1.4,6.6c0,3.87,1.4,5.8,4.2,5.8c0.93,0,2.7-0.73,5.3-2.2c2.6-1.47,6.97-4.97,13.1-10.5
		c6.13-5.53,11.07-10.97,14.8-16.3c0.53-0.67,1.17-0.83,1.9-0.5c0.73,0.33,1.1,0.67,1.1,1c0,0.33-0.13,0.7-0.4,1.1
		c-2,3.6-5.6,8.2-10.8,13.8c-5.2,5.6-10.27,10.13-15.2,13.6C293.6,152.83,288.4,154.7,282.79,154.7z"/>
	<path d="M329.39,151.9c-2.13,0-4.43-0.63-6.9-1.9c-2.47-1.27-4.57-3.07-6.3-5.4c-1.73-2.33-2.6-4.83-2.6-7.5
		c0-2.67,0.6-5.2,1.8-7.6c2.67-5.6,6.97-11.03,12.9-16.3c5.93-5.27,12.1-9.77,18.5-13.5c6.4-3.73,11.47-6.07,15.2-7
		c3.73-0.93,7.37-1.4,10.9-1.4c3.53,0,6.57,0.9,9.1,2.7c2.53,1.8,3.8,3.7,3.8,5.7c0,0.67-0.07,1.07-0.2,1.2
		c-0.13,0.13-0.47,0.07-1-0.2c-1.6-2.53-4.9-3.8-9.9-3.8s-10.67,1.63-17,4.9c-6.33,3.27-12.3,7.37-17.9,12.3
		c-4.67,4.4-8.77,9.37-12.3,14.9c-3.53,5.53-5.3,9.57-5.3,12.1c0,4.93,1.4,7.4,4.2,7.4s7.07-2.27,12.8-6.8
		c9.47-8,15.93-13.87,19.4-17.6c12.27-13.2,18.87-19.8,19.8-19.8c1.6,0,3.53,0.47,5.8,1.4c2.27,0.93,3,2.07,2.2,3.4
		c-6.8,9.6-10.8,19.27-12,29c-0.13,1.2-0.2,2.73-0.2,4.6c0,1.87,0.53,3.4,1.6,4.6c2,2.13,4.73,2.27,8.2,0.4
		c3.47-1.87,8.3-5.6,14.5-11.2c6.2-5.6,11.17-11.07,14.9-16.4c0.53-0.67,1.13-0.83,1.8-0.5c0.67,0.33,1,0.63,1,0.9
		c0,2-3.17,6.37-9.5,13.1c-6.33,6.73-11.17,11.3-14.5,13.7c-6.27,4.67-12.07,7-17.4,7c-5.07,0-8.47-2.53-10.2-7.6
		c-0.4-1.6-0.6-3.4-0.6-5.4c0-6,1.27-12.33,3.8-19c-0.53,0.27-3,2.93-7.4,8c-4.4,5.07-9.5,9.93-15.3,14.6
		C339.29,149.57,334.06,151.9,329.39,151.9z"/>
	<path d="M442.79,93.7c10.27-0.93,16.5-1.4,18.7-1.4c2.2,0,3.3,0.33,3.3,1c0,0.8-1.57,1.63-4.7,2.5c-3.13,0.87-10.77,1.97-22.9,3.3
		c-0.67,1.2-1.47,2.6-2.4,4.2c-2,3.2-3.07,5.13-3.2,5.8c-7.6,15.2-11.6,24.87-12,29c-0.13,1.2-0.2,2.73-0.2,4.6
		c0,1.87,0.53,3.4,1.6,4.6c1.87,2.13,4.53,2.27,8,0.4c3.47-1.87,8.3-5.6,14.5-11.2c6.2-5.6,11.23-11.07,15.1-16.4
		c0.53-0.67,1.2-0.8,2-0.4c2,0.93-1.47,6.2-10.4,15.8c-8.53,9.2-15.67,14.87-21.4,17c-3.33,1.2-6.13,1.8-8.4,1.8
		c-5.33,0-8.87-2.53-10.6-7.6c-0.27-0.93-0.4-2.07-0.4-3.4c0-4.67,2.13-11.73,6.4-21.2c-0.67,1.47-3.27,4.8-7.8,10
		c-1.2,1.33-2.13,1.33-2.8,0c-0.13-0.27-0.2-0.63-0.2-1.1c0-0.47,0.27-1.03,0.8-1.7c6.53-8.13,11.67-15,15.4-20.6
		c0-0.13,1.47-2.93,4.4-8.4c-1.33,0.27-2.7,0.4-4.1,0.4c-1.4,0-2.43-0.43-3.1-1.3c-0.67-0.87-0.73-1.9-0.2-3.1
		c0.93-2.13,4.47-3.33,10.6-3.6c0.13-0.27,0.4-0.4,0.8-0.4l10-18.6c0.53-1.07,1.13-2.17,1.8-3.3c0.67-1.13,1.17-2,1.5-2.6
		c0.33-0.6,0.7-1.23,1.1-1.9c0.4-0.67,0.73-1.13,1-1.4c0.27-0.27,0.53-0.53,0.8-0.8c0.53-0.8,2.1-1.2,4.7-1.2
		c2.6,0,4.37,0.73,5.3,2.2c0.4,0.53,0.6,1.43,0.6,2.7c0,1.27-0.47,2.67-1.4,4.2c-0.93,1.53-1.93,2.63-3,3.3
		c-1.07,0.67-1.8,1.4-2.2,2.2l-9.6,16.8L442.79,93.7z"/>
	<path d="M624.19,42.9c3.87-4.27,7.53-6.4,11-6.4c1.6,0,2.87,0.4,3.8,1.2c0.93,0.8,1.4,1.6,1.4,2.4c0,0.8-0.4,1.6-1.2,2.4
		c-0.8,0.8-2.33,2.03-4.6,3.7c-2.27,1.67-4.07,3.17-5.4,4.5c-6.4,6.27-9.6,11.67-9.6,16.2c0,2,0.43,3.67,1.3,5
		c0.87,1.33,0.77,2.17-0.3,2.5c-1.07,0.33-2.07-0.1-3-1.3c-1.2-0.8-1.8-3.47-1.8-8c0-6,1.07-11,3.2-15c0.27-0.4,0.7-1.1,1.3-2.1
		s1.1-1.7,1.5-2.1c-0.93,0-3.43,0-7.5,0c-4.07,0-12.13-0.53-24.2-1.6c-12.07-1.07-21.17-1.6-27.3-1.6c-6.13,0-10.87,0.4-14.2,1.2
		c-12.67,1.73-23.57,5.23-32.7,10.5c-9.13,5.27-14.57,11.9-16.3,19.9c-0.27,0.8-0.4,1.77-0.4,2.9c0,1.13,0.37,2.5,1.1,4.1
		c0.73,1.6,1.63,2.87,2.7,3.8c1.07,0.93,2.7,2.07,4.9,3.4c2.2,1.33,3.67,2.3,4.4,2.9c0.73,0.6,0.87,1.1,0.4,1.5
		c-0.47,0.4-0.93,0.6-1.4,0.6c-0.47,0-0.97-0.07-1.5-0.2c-4.53-1.33-8.37-3.83-11.5-7.5c-3.13-3.67-4.7-6.73-4.7-9.2
		c0-2.47,0.33-4.57,1-6.3c0-1.47,0.07-2.53,0.2-3.2c2-9.47,8.07-16.8,18.2-22c12.13-6.27,26.93-9.4,44.4-9.4
		c9.6,0,21.4,1.13,35.4,3.4C606.79,41.37,617.25,42.63,624.19,42.9z M545.99,138.1c0.4,0,0.6,0.4,0.6,1.2c0,0.8-0.93,2.13-2.8,4
		l-2,3c-3.6,5.47-6.23,8.67-7.9,9.6c-1.67,0.93-3,1.4-4,1.4s-2.53-0.23-4.6-0.7c-2.07-0.47-3.13-0.97-3.2-1.5
		c-0.07-0.53-0.1-1.07-0.1-1.6c0-6.53,5.93-21.27,17.8-44.2c-3.2,0.4-5.63,0.6-7.3,0.6c-1.67,0-3.07-0.5-4.2-1.5
		c-1.13-1-1.7-2.3-1.7-3.9c0-1.6,1.4-3.07,4.2-4.4c2.8-1.33,4.97-2,6.5-2c1.53,0,2.83,0.63,3.9,1.9c1.07,1.27,1.73,1.9,2,1.9h0.6
		c2.8-5.07,5.33-9.73,7.6-14c2.27-4.27,3.4-7.03,3.4-8.3c0-1.27-0.2-2.23-0.6-2.9c0.8-3.87,4.1-8.8,9.9-14.8s11.1-9,15.9-9
		c2.13,0,4.73,0.83,7.8,2.5c3.07,1.67,4.4,3.83,4,6.5c-0.93-0.67-1.8-1-2.6-1c-9.07,0-21.54,13.6-37.4,40.8c4.4-0.4,9-1,13.8-1.8
		c16-2,25.07-3,27.2-3c2.13,0,3.5,0.03,4.1,0.1c0.6,0.07,1.13,0.23,1.6,0.5c0.47,0.27,0.77,0.53,0.9,0.8c0.13,0.8-1.4,1.73-4.6,2.8
		c-7.73,2.53-23.4,5.07-47,7.6c-11.2,20.27-16.8,32.73-16.8,37.4c0,2.27,0.97,3.1,2.9,2.5c1.93-0.6,3.63-1.83,5.1-3.7
		C542.45,140.37,544.79,138.1,545.99,138.1z"/>
	<path d="M615.79,151.9c-2.13,0-4.43-0.63-6.9-1.9c-2.47-1.27-4.57-3.07-6.3-5.4c-1.73-2.33-2.6-4.83-2.6-7.5
		c0-2.67,0.6-5.2,1.8-7.6c2.67-5.6,6.97-11.03,12.9-16.3c5.93-5.27,12.1-9.77,18.5-13.5c6.4-3.73,11.46-6.07,15.2-7
		c3.73-0.93,7.37-1.4,10.9-1.4c3.53,0,6.57,0.9,9.1,2.7c2.53,1.8,3.8,3.7,3.8,5.7c0,0.67-0.07,1.07-0.2,1.2
		c-0.13,0.13-0.47,0.07-1-0.2c-1.6-2.53-4.9-3.8-9.9-3.8s-10.67,1.63-17,4.9c-6.33,3.27-12.3,7.37-17.9,12.3
		c-4.67,4.4-8.77,9.37-12.3,14.9c-3.53,5.53-5.3,9.57-5.3,12.1c0,4.93,1.4,7.4,4.2,7.4s7.07-2.27,12.8-6.8
		c9.47-8,15.93-13.87,19.4-17.6c12.27-13.2,18.87-19.8,19.8-19.8c1.6,0,3.53,0.47,5.8,1.4c2.27,0.93,3,2.07,2.2,3.4
		c-6.8,9.6-10.8,19.27-12,29c-0.13,1.2-0.2,2.73-0.2,4.6c0,1.87,0.53,3.4,1.6,4.6c2,2.13,4.73,2.27,8.2,0.4
		c3.47-1.87,8.3-5.6,14.5-11.2c6.2-5.6,11.17-11.07,14.9-16.4c0.53-0.67,1.13-0.83,1.8-0.5c0.67,0.33,1,0.63,1,0.9
		c0,2-3.17,6.37-9.5,13.1c-6.33,6.73-11.17,11.3-14.5,13.7c-6.27,4.67-12.07,7-17.4,7c-5.07,0-8.47-2.53-10.2-7.6
		c-0.4-1.6-0.6-3.4-0.6-5.4c0-6,1.27-12.33,3.8-19c-0.54,0.27-3,2.93-7.4,8c-4.4,5.07-9.5,9.93-15.3,14.6
		C625.69,149.57,620.45,151.9,615.79,151.9z"/>
	<path d="M723.59,154.7c-6.8,0-10.2-4.1-10.2-12.3c0-8.2,5.87-18.3,17.6-30.3c0.93-0.93,1.6-1.67,2-2.2l1.4-2
		c1.87-2.53,2.73-4.13,2.6-4.8l-0.6-1.8c-0.53-1.6-2.73-2.77-6.6-3.5c-3.87-0.73-7-1.1-9.4-1.1c-12,16.93-18.93,26.6-20.8,29
		c-1.87,2.4-3.13,3.4-3.8,3c-0.67-0.4-1-0.87-1-1.4c0-0.53,0.4-1.33,1.2-2.4c7.2-8.8,13.4-18.2,18.6-28.2
		c-1.6-0.27-2.8-0.83-3.6-1.7c-0.8-0.87-0.87-2.33-0.2-4.4c0.67-2.07,2.7-4.83,6.1-8.3c3.4-3.47,6.37-5.8,8.9-7
		c2.53-1.2,4.13-1.93,4.8-2.2c0.67-0.27,1.4-0.4,2.2-0.4c1.6,0,1.07,2.4-1.6,7.2l-7.8,12.4c6,0.4,11.13,0.6,15.4,0.6l7-0.2
		c2.27,0,3.93,0.3,5,0.9c1.07,0.6,1.33,1.63,0.8,3.1c-0.93,2.53-3.27,5.93-7,10.2c-8,9.33-14,19.27-18,29.8
		c-0.93,2.53-1.4,4.73-1.4,6.6c0,3.87,1.4,5.8,4.2,5.8c0.93,0,2.7-0.73,5.3-2.2c2.6-1.47,6.97-4.97,13.1-10.5
		c6.13-5.53,11.07-10.97,14.8-16.3c0.53-0.67,1.17-0.83,1.9-0.5c0.73,0.33,1.1,0.67,1.1,1c0,0.33-0.13,0.7-0.4,1.1
		c-2,3.6-5.6,8.2-10.8,13.8c-5.2,5.6-10.27,10.13-15.2,13.6C734.39,152.83,729.19,154.7,723.59,154.7z"/>
	<path d="M786.38,97.7c0,0.93-0.73,2.97-2.2,6.1c-1.47,3.13-5.67,13.9-12.6,32.3c4.8-5.87,10.87-12.67,18.2-20.4
		c14.8-15.47,25-23.2,30.6-23.2c1.2,0,2.37,0.33,3.5,1c1.13,0.67,1.7,2.17,1.7,4.5c0,2.33-0.73,4.93-2.2,7.8
		c-1.47,2.87-3.13,6.37-5,10.5c-1.87,4.13-3.13,6.73-3.8,7.8c11.2-10.13,19.67-16.3,25.4-18.5c5.73-2.2,9.53-3.3,11.4-3.3
		c1.87,0,2.8,0.67,2.8,2c0,0.8-1,2.73-3,5.8c-2,3.07-4.2,7.6-6.6,13.6c-2.4,6-3.73,10.2-4,12.6c-0.27,2.4-0.4,4.53-0.4,6.4
		c0,1.87,0.53,3.4,1.6,4.6c2,2.13,4.73,2.27,8.2,0.4c3.47-1.87,8.3-5.6,14.5-11.2c6.2-5.6,11.17-11.07,14.9-16.4
		c0.53-0.67,1.17-0.83,1.9-0.5c0.73,0.33,1.1,0.67,1.1,1c0,0.33-0.13,0.7-0.4,1.1c-2,3.6-5.6,8.2-10.8,13.8
		c-8.53,9.2-15.67,14.87-21.4,17c-6.27,2.13-10.8,2.4-13.6,0.8s-4.53-3.4-5.2-5.4c-0.67-2-1-4-1-6c0-6.27,1.23-12.53,3.7-18.8
		c2.47-6.27,4.43-10.53,5.9-12.8c-5.07,2.13-9.4,4.8-13,8c-5.47,4.8-9.87,9-13.2,12.6l-4,4.4c-1.2,2.93-3.3,4.6-6.3,5
		s-4.43-0.6-4.3-3c0.27-2.53,2.73-8.2,7.4-17c4.67-8.8,7-13.7,7-14.7s-0.53-1.5-1.6-1.5c-2.4,0-6.73,2.73-13,8.2
		c-4.13,3.87-10.23,11.17-18.3,21.9c-8.07,10.73-12.63,16.43-13.7,17.1c-4.8,2.4-7.8,3.6-9,3.6c-1.2,0-1.8-0.2-1.8-0.6
		s0.2-1,0.6-1.8c0.4-0.8,4.47-12.4,12.2-34.8c-2.93,4.53-5.6,8-8,10.4c-1.07,1.2-1.6,0.97-1.6-0.7c0-1.67,0.47-3.1,1.4-4.3
		c6-7.87,10.4-14.53,13.2-20c0.8-4.67,2.4-7.4,4.8-8.2c1.47-0.53,3.17-0.53,5.1,0C785.41,95.43,786.38,96.37,786.38,97.7z"/>
	<path d="M878.98,151.7c-1.73,2-2.1,3.6-1.1,4.8c1,1.2,2.13,1.8,3.4,1.8c1.27,0,2.57-0.2,3.9-0.6c5.73-1.73,11.3-5.17,16.7-10.3
		c5.4-5.13,8.1-10.37,8.1-15.7c0-2.93-3.27-6.13-9.8-9.6c-3.07-1.6-4.8-2.53-5.2-2.8c-3.6-2.4-5.87-4.8-6.8-7.2
		c-1.87,3.2-4.87,7.8-9,13.8c-0.93,1.07-1.8,1.3-2.6,0.7c-0.8-0.6-0.87-1.43-0.2-2.5c5.46-7.47,9.07-13.73,10.8-18.8
		c0.93-7.33,6.27-13.93,16-19.8c9.73-5.87,18.6-8.8,26.6-8.8c5.07,0,8.63,0.9,10.7,2.7c2.07,1.8,3.1,3.57,3.1,5.3
		c0,1.73-0.5,3.73-1.5,6c-1,2.27-3.03,4.4-6.1,6.4c-0.8,0.53-1.47,0.4-2-0.4c-0.27-0.8,0.3-1.9,1.7-3.3c1.4-1.4,2.3-3.3,2.7-5.7
		c0.4-2.4-0.67-3.87-3.2-4.4c-0.4,0-0.8,0-1.2,0c-5.2,0-11.7,1.93-19.5,5.8c-7.8,3.87-13.9,8.87-18.3,15
		c-1.73,2.27-2.6,4.57-2.6,6.9c0,2.33,1.6,4.43,4.8,6.3c1.33,0.8,3.6,2.07,6.8,3.8c3.2,1.73,5.47,3,6.8,3.8
		c1.33,0.8,2.93,2.07,4.8,3.8c1.87,1.73,2.87,3.33,3,4.8c0.67,4-1.2,8.4-5.6,13.2c-6.27,6.93-15.6,11.8-28,14.6
		c-2.8,0.67-5.63,1-8.5,1c-2.87,0-4.83-1.07-5.9-3.2c-0.4-0.53-0.6-1.37-0.6-2.5c0-1.13,1.07-2.97,3.2-5.5c2-2,5.2-3.93,9.6-5.8
		c0.4-0.13,0.73-0.07,1,0.2c0.27,0.27,0.33,0.6,0.2,1c-0.13,0.4-0.83,0.87-2.1,1.4C881.81,148.43,880.45,149.7,878.98,151.7z"/>
</g>
<g>
</g>
<g>
</g>
<g>
</g>
<g>
</g>
<g>
</g>
<g>
</g>
<g>
</g>
<g>
</g>
<g>
</g>
<g>
</g>
<g>
</g>
<g>
</g>
<g>
</g>
<g>
</g>
<g>
</g>
</svg>
